<mxfile host="app.diagrams.net" modified="2021-07-11T15:25:10.553Z" agent="5.0 (Macintosh; Intel Mac OS X 10_12_6) AppleWebKit/537.36 (KHTML, like Gecko) Chrome/90.0.4430.212 Safari/537.36" etag="RUc-i2-zXI1ErNvXQF7g" version="14.8.5" type="github">
  <diagram id="KYx8RAsD82NPJKNrfT8i" name="Page-1">
    <mxGraphModel dx="872" dy="482" grid="1" gridSize="10" guides="1" tooltips="1" connect="1" arrows="1" fold="1" page="1" pageScale="1" pageWidth="827" pageHeight="1169" math="0" shadow="0">
      <root>
        <mxCell id="0" />
        <mxCell id="1" parent="0" />
        <mxCell id="t17s-WDCnflojWWr3krS-1" value="&lt;font&gt;Resources&lt;/font&gt;" style="outlineConnect=0;dashed=0;verticalLabelPosition=bottom;verticalAlign=top;align=center;html=1;shape=mxgraph.aws3.resources;fillColor=#1ba1e2;strokeColor=#006EAF;" vertex="1" parent="1">
          <mxGeometry x="348.25" y="340" width="67.5" height="79.5" as="geometry" />
        </mxCell>
        <mxCell id="t17s-WDCnflojWWr3krS-3" value="Users" style="aspect=fixed;perimeter=ellipsePerimeter;html=1;align=center;shadow=0;dashed=0;spacingTop=3;image;image=img/lib/active_directory/users.svg;" vertex="1" parent="1">
          <mxGeometry x="270" y="51.5" width="33" height="50" as="geometry" />
        </mxCell>
        <mxCell id="t17s-WDCnflojWWr3krS-4" value="Organization" style="outlineConnect=0;fontColor=#232F3E;gradientColor=none;strokeColor=none;dashed=0;verticalLabelPosition=bottom;verticalAlign=top;align=center;html=1;fontSize=12;fontStyle=0;aspect=fixed;pointerEvents=1;shape=mxgraph.aws4.organizations_organizational_unit;fillColor=#3399FF;" vertex="1" parent="1">
          <mxGeometry x="420" y="43" width="78" height="67" as="geometry" />
        </mxCell>
        <mxCell id="t17s-WDCnflojWWr3krS-6" value="Roles" style="aspect=fixed;html=1;points=[];align=center;image;fontSize=12;image=img/lib/azure2/intune/Azure_AD_Roles_and_Administrators.svg;fillColor=#66B2FF;" vertex="1" parent="1">
          <mxGeometry x="350" y="201" width="64" height="64" as="geometry" />
        </mxCell>
      </root>
    </mxGraphModel>
  </diagram>
</mxfile>
